:version 1.10
:name ASF
:units
  mass 1
  length 1
  angle deg
:documentation
  ASF file generated by Kaydara
:root
  axis xyz
  order  tx ty tz rx ry rz
  position 0 0 0
  orientation 0 0 0
:bonedata
  begin
    id 1
    name RightUpLegDummy
    direction -1 2.30186e-007 8.31532e-007
    length 4.46685
    axis 0 0 0 xyz
  end
  begin
    id 2
    name RightUpLeg
    direction -2.30187e-007 -1 1.24343e-010
    length 16.4045
    axis -3.49089 -0.000906625 0.000286804 xyz
    dof rx ry rz
  end
  begin
    id 3
    name RightLeg
    direction -2.30181e-007 -1 -4.17157e-009
    length 17.5097
    axis 3.68512 0.0193738 -0.131023 xyz
    dof rx ry rz
  end
  begin
    id 4
    name RightFoot
    direction 8.31421e-007 -4.51202e-011 1
    length 6.49508
    axis 4.81691e-005 -0.120479 -0.188788 xyz
    dof rx ry rz
  end
  begin
    id 5
    name RightToes
    direction 0.00124746 -0.014064 0.9999
    length 3.85082
    axis 0.000481921 0.542163 -0.142578 xyz
    dof rx ry rz
  end
  begin
    id 6
    name SpineDummy
    direction 0.0717043 0.9409 -0.331007
    length 10.0032
    axis 0 0 0 xyz
  end
  begin
    id 7
    name Spine
    direction 2.30186e-007 1 4.58806e-011
    length 9.84055
    axis -0.001389 0.000121418 2.40972e-006 xyz
    dof rx ry rz
  end
  begin
    id 8
    name Spine1
    direction 0 0 0
    length 0
    axis -0.001389 0.000121451 1.30017e-006 xyz
    dof rx ry rz
  end
  begin
    id 9
    name HEadDummy
    direction -0.00347485 0.950688 -0.310128
    length 8.00997
    axis -0.001389 0.000121451 1.30017e-006 xyz
  end
  begin
    id 10
    name HEad
    direction -0.0222688 0.980941 0.193023
    length 5.12695
    axis -0.001389 0.000121451 1.30017e-006 xyz
    dof rx ry rz
  end
  begin
    id 11
    name LeftShoulder1Dummy
    direction 0.988871 0.146793 -0.0242004
    length 3.5792
    axis -0.001389 0.000121451 1.30017e-006 xyz
  end
  begin
    id 12
    name LeftShoulder1
    direction 0.993832 0.108932 0.020779
    length 4.16823
    axis -0.001389 0.000121451 1.30017e-006 xyz
    dof rx ry rz
  end
  begin
    id 13
    name LeftArm
    direction 1 3.44807e-006 -8.31404e-007
    length 9.91437
    axis -23.1894 0.134784 0.967509 xyz
    dof rx ry rz
  end
  begin
    id 14
    name LeftForeArm
    direction 1 3.44842e-006 -8.31581e-007
    length 9.08575
    axis -9.91835 -0.06569 -0.177793 xyz
    dof rx ry rz
  end
  begin
    id 15
    name LeftHand
    direction 0.992938 -0.0411636 0.11126
    length 5.32135
    axis -0.00960232 -0.00340091 0.185173 xyz
    dof rx ry rz
  end
  begin
    id 16
    name RightShoulderDummy
    direction -0.988871 0.146793 -0.0241962
    length 3.5792
    axis -0.001389 0.000121451 1.30017e-006 xyz
  end
  begin
    id 17
    name RightShoulder
    direction -0.993832 0.108933 0.0207785
    length 4.16823
    axis 0.215806 0.000203643 -0.0068026 xyz
    dof rx ry rz
  end
  begin
    id 18
    name RightArm
    direction -1 3.90912e-006 8.31284e-007
    length 9.91437
    axis -23.2009 -0.134239 -0.964101 xyz
    dof rx ry rz
  end
  begin
    id 19
    name RightForeArm
    direction -1 3.90882e-006 8.31502e-007
    length 9.08575
    axis -9.92322 0.0658061 0.178867 xyz
    dof rx ry rz
  end
  begin
    id 20
    name RightHand
    direction -0.992843 -0.0414603 0.112003
    length 5.28593
    axis -0.00960638 0.00330671 -0.185228 xyz
    dof rx ry rz
  end
  begin
    id 21
    name LeftUpLegDummy
    direction 1 -2.30186e-007 -8.31532e-007
    length 4.46685
    axis 0 0 0 xyz
  end
  begin
    id 22
    name LeftUpLeg
    direction -2.30187e-007 -1 6.00931e-010
    length 16.4045
    axis -3.48766 0.00143442 -0.000524262 xyz
    dof rx ry rz
  end
  begin
    id 23
    name LeftLeg
    direction -2.30187e-007 -1 1.6669e-009
    length 17.5097
    axis 3.68178 -0.00654042 -0.000285133 xyz
    dof rx ry rz
  end
  begin
    id 24
    name LeftFoot
    direction 8.31532e-007 -4.54478e-011 1
    length 6.49508
    axis 1.87233e-006 4.66016e-005 -8.6538e-006 xyz
    dof rx ry rz
  end
  begin
    id 25
    name LeftToes
    direction 0.00818058 -0.00485161 0.999955
    length 3.85048
    axis 1.06247e-005 4.65869e-005 -8.65513e-006 xyz
    dof rx ry rz
  end
:hierarchy
  begin
    root RightUpLegDummy SpineDummy LeftUpLegDummy
    RightUpLegDummy RightUpLeg
    RightUpLeg RightLeg
    RightLeg RightFoot
    RightFoot RightToes
    SpineDummy Spine
    Spine Spine1
    Spine1 HEadDummy LeftShoulder1Dummy RightShoulderDummy
    HEadDummy HEad
    LeftShoulder1Dummy LeftShoulder1
    LeftShoulder1 LeftArm
    LeftArm LeftForeArm
    LeftForeArm LeftHand
    RightShoulderDummy RightShoulder
    RightShoulder RightArm
    RightArm RightForeArm
    RightForeArm RightHand
    LeftUpLegDummy LeftUpLeg
    LeftUpLeg LeftLeg
    LeftLeg LeftFoot
    LeftFoot LeftToes
  end

:SAMPLES-PER-SECOND 30
:FULLY-SPECIFIED
:DEGREES
64
root  -75.6742 30.6383 36.4081 -171.567 69.4866 170.916
RightUpLeg  -43.2448 -16.4676 3.21108
RightLeg  56.794 -6.25088 -8.32012
RightFoot  -22.6365 0.764746 4.19716
RightToes  -13.132 -0.0465697 -0.119441
Spine  15.1477 -0.310458 -0.673668
Spine1  26.2768 0.260871 -2.00611
HEad  9.23296 0.703158 4.00755
LeftShoulder1  0 -2.42657e-020 -4.95415e-022
LeftArm  -33.5849 -17.4035 -81.7368
LeftForeArm  20.9946 -41.5773 -9.00376
LeftHand  0.479317 -4.50364 -12.5331
RightShoulder  0 2.42657e-020 1.07489e-018
RightArm  -41.8212 19.1423 82.782
RightForeArm  39.4217 18.7311 3.41327
RightHand  -0.0965513 22.8699 -0.107352
LeftUpLeg  -50.6343 11.5859 0.691875
LeftLeg  57.632 -0.305812 -0.429806
LeftFoot  -2.46534 -0.00661959 -0.307646
LeftToes  -25.9138 2.01279e-006 2.21547e-008
65
root  -75.8774 31.2549 37.0822 -170.266 64.7176 170.854
RightUpLeg  -42.8068 -18.2641 4.58077
RightLeg  52.9458 -8.4949 -9.78024
RightFoot  -20.8951 0.801431 4.72203
RightToes  -10.8187 -0.0363975 -0.0992248
Spine  13.7846 -0.509221 -0.988203
Spine1  24.4405 -0.702141 -1.95301
HEad  9.12442 -1.31782 5.64249
LeftShoulder1  0 -2.42657e-020 -4.95415e-022
LeftArm  -35.8283 -14.4012 -81.1876
LeftForeArm  5.89486 -44.7175 -10.0509
LeftHand  0.173422 -1.39067 -14.6584
RightShoulder  0 2.42657e-020 1.07489e-018
RightArm  -43.0979 12.5904 83.2442
RightForeArm  35.6907 21.597 3.99146
RightHand  -0.16348 23.1142 -0.429546
LeftUpLeg  -45.9157 13.2708 -2.41501
LeftLeg  54.9521 -4.32209 -5.377
LeftFoot  -5.97395 0.0235646 0.451593
LeftToes  -24.8264 2.01279e-006 2.21547e-008
66
root  -75.9244 31.7588 37.7122 -168.013 59.3012 172.392
RightUpLeg  -41.7783 -20.9051 6.81054
RightLeg  49.0963 -11.1196 -11.1036
RightFoot  -19.1528 0.819226 5.23064
RightToes  -10.4653 -0.0349158 -0.0961011
Spine  12.6848 -0.989224 -0.672984
Spine1  23.0378 -1.80885 -1.54476
HEad  9.12034 -2.53814 6.34252
LeftShoulder1  0 -2.42657e-020 -4.95415e-022
LeftArm  -37.5439 -10.4151 -81.6125
LeftForeArm  12.5705 -52.0019 -13.0645
LeftHand  0.434275 -3.02638 -16.7362
RightShoulder  0 2.42657e-020 1.07489e-018
RightArm  -42.315 6.89076 83.151
RightForeArm  32.9798 24.006 4.49508
RightHand  -0.409998 22.7223 -1.67075
LeftUpLeg  -41.1928 14.2612 -3.50188
LeftLeg  52.1195 -8.55502 -9.53181
LeftFoot  -7.66517 0.102546 1.53065
LeftToes  -23.8638 2.01279e-006 2.21547e-008
67
root  -75.9409 32.1263 38.1998 -167.267 55.8002 172.36
RightUpLeg  -41.3431 -22.1274 7.88897
RightLeg  46.4586 -12.7794 -11.5908
RightFoot  -17.9426 0.791785 5.39002
RightToes  -8.74074 -0.0279626 -0.0807284
Spine  12.0595 -0.7389 -1.1505
Spine1  22.1965 -1.49846 -1.74183
HEad  8.12702 -5.10692 8.74026
LeftShoulder1  0 -2.42657e-020 -4.95415e-022
LeftArm  -36.059 -7.00274 -80.4867
LeftForeArm  13.2635 -59.9803 -17.8204
LeftHand  0.606835 -3.4509 -20.3512
RightShoulder  0 2.42657e-020 1.07489e-018
RightArm  -43.7037 1.8978 83.8501
RightForeArm  30.7348 26.7671 5.09591
RightHand  -0.56142 22.1533 -2.49789
LeftUpLeg  -36.6078 15.5644 -4.24085
LeftLeg  47.6119 -9.98322 -9.48778
LeftFoot  -8.40169 0.137133 1.86685
LeftToes  -24.9803 2.01279e-006 2.21547e-008
68
root  -75.944 32.3486 38.7714 -165.353 51.8871 173.636
RightUpLeg  -41.7085 -24.6024 9.93148
RightLeg  44.6181 -10.7611 -9.22261
RightFoot  -16.7219 0.543781 4.07638
RightToes  -8.60386 -0.0274306 -0.0794995
Spine  11.8235 -1.04005 -0.992203
Spine1  21.891 -2.34921 -0.962533
HEad  6.49804 -6.50924 10.0792
LeftShoulder1  0 -2.42657e-020 -4.95415e-022
LeftArm  -36.3637 -3.14706 -80.6036
LeftForeArm  18.0761 -69.3627 -28.057
LeftHand  0.815519 -4.01059 -23.3884
RightShoulder  0 2.42657e-020 1.07489e-018
RightArm  -43.6026 -0.74949 83.5624
RightForeArm  28.4494 29.2473 5.66176
RightHand  -0.666381 21.4787 -3.14334
LeftUpLeg  -34.0239 15.3336 -3.37039
LeftLeg  40.7914 -11.4332 -8.53433
LeftFoot  -9.0293 0.167373 2.11949
LeftToes  -26.698 2.01279e-006 2.21547e-008
